<svg width="193" height="22" viewBox="0 0 193 22" fill="none" xmlns="http://www.w3.org/2000/svg">
<path fill-rule="evenodd" clip-rule="evenodd" d="M58.1598 20.8216H47.2952C47.4135 15.8726 52.4331 14.6586 55.2369 11.8275C56.1329 10.8996 56.6035 10.0189 56.6035 8.68631C56.6035 6.52114 54.9076 5.2839 52.9045 5.2839C50.1943 5.2839 49.1341 7.47312 49.1809 9.92356H47.6968C47.6262 6.49792 49.3928 4.02261 52.976 4.02261C55.8496 4.02261 58.0884 5.61726 58.0884 8.71036C58.0884 11.4942 56.0861 13.2314 53.941 14.6354C52.3387 15.7291 49.3928 17.2052 48.9928 19.4417H58.1598V20.8216Z" fill="#44CCFF"/>
<path fill-rule="evenodd" clip-rule="evenodd" d="M67.8675 15.4201V6.35472H67.8207L61.5996 15.4201H67.8675ZM60.256 15.2302L67.8913 4.1655H69.2349V15.4201H71.7094V16.6814H69.2349V20.8218H67.8675V16.6814H60.256V15.2302Z" fill="#44CCFF"/>
<path fill-rule="evenodd" clip-rule="evenodd" d="M75.1019 15.2297C75.0313 18.7275 77.5288 19.7981 80.5929 19.7981C82.3603 19.7981 85.0459 18.8229 85.0459 16.3484C85.0459 14.4212 83.1381 13.6591 81.5826 13.2785L77.8351 12.3506C75.8559 11.8514 74.0417 10.8994 74.0417 8.25824C74.0417 6.59228 75.1019 3.47513 79.839 3.47513C83.1611 3.47513 86.0831 5.28372 86.0601 8.75745H84.4579C84.3626 6.16439 82.2421 4.85583 79.862 4.85583C77.6709 4.85583 75.644 5.71244 75.644 8.23419C75.644 9.82884 76.8225 10.4947 78.1891 10.8281L82.2897 11.8514C84.6689 12.4932 86.6498 13.5406 86.6498 16.3244C86.6498 17.4903 86.1776 21.1788 80.216 21.1788C76.2336 21.1788 73.3107 19.3702 73.4996 15.2297H75.1019Z" fill="#44CCFF"/>
<path fill-rule="evenodd" clip-rule="evenodd" d="M97.653 13.826C97.5823 11.5655 96.1919 9.44756 93.7881 9.44756C91.3612 9.44756 90.0176 11.5895 89.7819 13.826H97.653ZM89.7819 15.0873C89.8057 17.2765 90.9366 19.9177 93.7881 19.9177C95.9571 19.9177 97.1348 18.6323 97.6053 16.7765H99.0902C98.4545 19.5603 96.8514 21.179 93.7881 21.179C89.924 21.179 88.2971 18.1804 88.2971 14.6826C88.2971 11.4469 89.924 8.1871 93.7881 8.1871C97.7006 8.1871 99.2553 11.6368 99.1378 15.0873H89.7819Z" fill="#44CCFF"/>
<path fill-rule="evenodd" clip-rule="evenodd" d="M99.7736 8.54352H101.423L105.24 19.3229H105.288L109.058 8.54352H110.59L106.042 20.8214H104.463L99.7736 8.54352Z" fill="#44CCFF"/>
<path fill-rule="evenodd" clip-rule="evenodd" d="M120.793 13.826C120.722 11.5655 119.332 9.44756 116.928 9.44756C114.501 9.44756 113.158 11.5895 112.922 13.826H120.793ZM112.922 15.0873C112.946 17.2765 114.077 19.9177 116.928 19.9177C119.097 19.9177 120.275 18.6323 120.745 16.7765H122.23C121.594 19.5603 119.991 21.179 116.928 21.179C113.064 21.179 111.437 18.1804 111.437 14.6826C111.437 11.4469 113.064 8.1871 116.928 8.1871C120.841 8.1871 122.395 11.6368 122.278 15.0873H112.922Z" fill="#44CCFF"/>
<path fill-rule="evenodd" clip-rule="evenodd" d="M124.257 8.54353H125.742V10.6614H125.789C126.33 9.1862 127.957 8.18695 129.677 8.18695C133.094 8.18695 134.13 9.99472 134.13 12.922V20.8214H132.646V13.16C132.646 11.0421 131.963 9.44741 129.559 9.44741C127.202 9.44741 125.789 11.256 125.742 13.6592V20.8214H124.257V8.54353Z" fill="#44CCFF"/>
<path fill-rule="evenodd" clip-rule="evenodd" d="M144.263 19.7984C148.694 19.7984 150.578 16.0385 150.578 12.3268C150.578 8.61509 148.694 4.85527 144.263 4.85527C139.809 4.85527 137.923 8.61509 137.923 12.3268C137.923 16.0385 139.809 19.7984 144.263 19.7984ZM144.263 3.4754C149.542 3.4754 152.181 7.68716 152.181 12.3268C152.181 16.9665 149.542 21.1791 144.263 21.1791C138.961 21.1791 136.322 16.9665 136.322 12.3268C136.322 7.68716 138.961 3.4754 144.263 3.4754Z" fill="#44CCFF"/>
<path fill-rule="evenodd" clip-rule="evenodd" d="M159.085 9.80481H156.681V20.8214H155.197V9.80481H153.122V8.54352H155.197V7.42486C155.172 5.30779 155.762 3.83255 158.142 3.83255C158.566 3.83255 158.92 3.8566 159.391 3.92791V5.21242C158.99 5.14111 158.66 5.09384 158.307 5.09384C156.657 5.09384 156.705 6.14035 156.681 7.47296V8.54352H159.085V9.80481Z" fill="#44CCFF"/>
<path fill-rule="evenodd" clip-rule="evenodd" d="M166.201 20.8213H167.686V8.54343H166.201V20.8213ZM166.201 6.23562H167.686V3.83246H166.201V6.23562ZM160.875 9.80472H158.801V8.54343H160.875V7.4256C160.851 5.30769 161.44 3.83246 163.821 3.83246C164.245 3.83246 164.599 3.85651 165.069 3.92782V5.21233C164.669 5.14101 164.338 5.09375 163.986 5.09375C162.336 5.09375 162.384 6.14026 162.36 7.47287V8.54343H164.764V9.80472H162.36V20.8213H160.875V9.80472Z" fill="#44CCFF"/>
<path fill-rule="evenodd" clip-rule="evenodd" d="M179.114 12.3987C178.714 10.5661 177.606 9.44741 175.674 9.44741C172.822 9.44741 171.408 12.0654 171.408 14.6825C171.408 17.3004 172.822 19.9175 175.674 19.9175C177.511 19.9175 179.02 18.4655 179.208 16.4197H180.693C180.293 19.3702 178.383 21.1788 175.674 21.1788C171.95 21.1788 169.924 18.2043 169.924 14.6825C169.924 11.1615 171.95 8.18695 175.674 8.18695C178.266 8.18695 180.269 9.59087 180.599 12.3987H179.114Z" fill="#44CCFF"/>
<path fill-rule="evenodd" clip-rule="evenodd" d="M191.509 13.826C191.438 11.5655 190.048 9.44756 187.644 9.44756C185.217 9.44756 183.873 11.5895 183.638 13.826H191.509ZM183.638 15.0873C183.662 17.2765 184.792 19.9177 187.644 19.9177C189.813 19.9177 190.991 18.6323 191.461 16.7765H192.946C192.31 19.5603 190.707 21.179 187.644 21.179C183.78 21.179 182.153 18.1804 182.153 14.6826C182.153 11.4469 183.78 8.1871 187.644 8.1871C191.556 8.1871 193.111 11.6368 192.994 15.0873H183.638Z" fill="#44CCFF"/>
<path fill-rule="evenodd" clip-rule="evenodd" d="M18.1542 14.6661C16.1511 14.6661 14.5242 16.3089 14.5242 18.3314C14.5242 20.3573 16.1511 22 18.1542 22C20.1606 22 21.7875 20.3573 21.7875 18.3314C21.7875 16.3089 20.1606 14.6661 18.1542 14.6661ZM25.4183 7.33223C23.4276 7.33223 21.8113 8.94843 21.7883 10.9536V11.0473C21.7694 12.4827 20.9342 13.7199 19.7286 14.3062C20.8324 14.7449 21.7111 15.6338 22.1448 16.745C22.732 15.5153 23.977 14.6661 25.4183 14.6661C27.4272 14.6661 29.0484 13.0242 29.0484 11.0008C29.0484 8.97414 27.4272 7.33223 25.4183 7.33223ZM14.5242 11.0008C14.5242 8.97414 12.8997 7.33223 10.8933 7.33223C8.8878 7.33223 7.2625 8.97414 7.2625 11.0008C7.2625 13.0242 5.63639 14.6661 3.6292 14.6661C1.62612 14.6661 0 16.3089 0 18.3322C0 20.3573 1.62612 22 3.6292 22C5.63639 22 7.2625 20.3573 7.2625 18.3322C7.2625 16.3089 8.8878 14.6661 10.8933 14.6661C12.3347 14.6661 13.5814 15.5153 14.1669 16.745C14.6014 15.6322 15.481 14.7432 16.5831 14.3046C15.3652 13.7125 14.5242 12.4553 14.5242 11.0008ZM32.6817 14.6661C31.2403 14.6661 29.9937 13.8161 29.4081 12.5864C28.9736 13.6992 28.0949 14.5882 26.9935 15.0277C28.2107 15.6206 29.0508 16.8786 29.0508 18.3322C29.0508 20.3573 30.6753 22 32.6817 22C34.6872 22 36.3117 20.3573 36.3117 18.3322C36.3117 16.3089 34.6872 14.6661 32.6817 14.6661ZM23.8464 6.9715C22.7435 7.41018 21.8639 8.29747 21.4294 9.41033C20.8439 8.18055 19.5996 7.33223 18.1567 7.33223C16.1519 7.33223 14.5242 5.69197 14.5242 3.66528C14.5242 1.64026 16.1519 0 18.1567 0C20.163 0 21.7883 1.64026 21.7883 3.66528C21.7883 5.12228 22.6277 6.38025 23.8464 6.9715Z" fill="#44CCFF"/>
</svg>
